<svg xmlns="http://www.w3.org/2000/svg" viewBox="0 0 96 96">
  <path d="M66.36 77.38L59.22 74.32C63.48 69.04 67.74 58.18 69.30 51.52L76.92 55.06C75.12 60.76 70.08 72.22 66.36 77.38M21.36 70.72L22.08 62.56C23.88 62.86 27.06 63.28 28.74 63.58L33.90 64.18C31.74 55.96 27.60 43.84 21.78 35.98L29.58 32.86C35.10 41.68 39.54 55.90 41.82 65.02C43.50 65.14 45 65.26 45.96 65.26C49.74 65.26 51.78 64.60 51.78 59.80C51.78 53.86 51 46.60 49.38 43.18C48.42 41.20 46.86 40.60 44.88 40.60C43.26 40.60 39.84 41.20 37.50 41.86L38.82 33.94C40.86 33.52 43.68 33.10 46.02 33.10C50.52 33.10 53.88 34.42 55.86 38.62C58.44 43.84 59.28 53.56 59.28 60.64C59.28 69.28 54.78 72.10 48.42 72.10C47.16 72.10 45.36 71.98 43.38 71.86L44.64 78.04C44.94 79.54 45.36 81.46 45.72 83.02L36.78 83.92C36.84 80.14 36.36 75.76 35.52 71.26C32.46 70.96 29.64 70.78 27.78 70.72C25.56 70.66 23.52 70.54 21.36 70.72" fill="#2563eb"/>

</svg>
